<svg width="24" height="24" viewBox="0 0 24 24" fill="none" xmlns="http://www.w3.org/2000/svg">
<path d="M20.3992 1.20001H3.59922C2.27922 1.20001 1.19922 2.28001 1.19922 3.60001V20.4C1.19922 21.7212 2.27922 22.8 3.59922 22.8H20.3992C21.7192 22.8 22.7992 21.7212 22.7992 20.4V3.60001C22.7992 2.28001 21.7192 1.20001 20.3992 1.20001ZM11.98 18.6276C13.7427 18.6273 15.433 17.9269 16.6792 16.6804C17.9255 15.4339 18.6256 13.7434 18.6256 11.9808C18.6256 11.5752 18.574 11.184 18.502 10.8H20.3992V19.4592C20.3992 19.5683 20.3777 19.6762 20.3358 19.7769C20.294 19.8776 20.2327 19.969 20.1554 20.046C20.0782 20.1229 19.9865 20.1838 19.8856 20.2252C19.7847 20.2666 19.6767 20.2877 19.5676 20.2872H4.43082C4.32178 20.2877 4.21372 20.2666 4.11285 20.2252C4.01198 20.1838 3.92027 20.1229 3.84301 20.046C3.76574 19.969 3.70442 19.8776 3.66259 19.7769C3.62075 19.6762 3.59922 19.5683 3.59922 19.4592V10.8H5.45802C5.38482 11.184 5.33322 11.5752 5.33322 11.9808C5.33354 13.7436 6.03393 15.434 7.28037 16.6805C8.52682 17.9269 10.2173 18.6273 11.98 18.6276V18.6276ZM7.82682 11.9808C7.82682 11.4354 7.93424 10.8953 8.14296 10.3915C8.35168 9.88756 8.6576 9.42972 9.04326 9.04406C9.42892 8.6584 9.88677 8.35247 10.3907 8.14376C10.8945 7.93504 11.4346 7.82761 11.98 7.82761C12.5254 7.82761 13.0655 7.93504 13.5694 8.14376C14.0733 8.35247 14.5311 8.6584 14.9168 9.04406C15.3024 9.42972 15.6084 9.88756 15.8171 10.3915C16.0258 10.8953 16.1332 11.4354 16.1332 11.9808C16.1332 13.0823 15.6957 14.1387 14.9168 14.9176C14.1379 15.6964 13.0815 16.134 11.98 16.134C10.8785 16.134 9.82214 15.6964 9.04326 14.9176C8.26439 14.1387 7.82682 13.0823 7.82682 11.9808V11.9808ZM19.5676 7.20001H17.6296C17.4096 7.19938 17.1987 7.11169 17.0431 6.95609C16.8875 6.8005 16.7999 6.58965 16.7992 6.36961V4.42921C16.7992 3.97081 17.1712 3.60001 17.6284 3.60001H19.5664C20.0272 3.60001 20.3992 3.97081 20.3992 4.42921V6.36841C20.3992 6.82561 20.0272 7.20001 19.5676 7.20001Z" fill="white" fill-opacity="0.9"/>
</svg>
