<svg width="28" height="28" viewBox="0 0 28 28" fill="none" xmlns="http://www.w3.org/2000/svg">
<path d="M18.1253 9.87459C18.6672 10.4163 19.097 11.0594 19.3902 11.7673C19.6835 12.4751 19.8344 13.2338 19.8344 13.9999C19.8344 14.7661 19.6835 15.5248 19.3902 16.2326C19.097 16.9404 18.6672 17.5836 18.1253 18.1253V9.87459ZM21.4247 6.57526C22.3997 7.55028 23.1731 8.70779 23.7008 9.98172C24.2285 11.2556 24.5001 12.621 24.5001 13.9999C24.5001 15.3788 24.2285 16.7442 23.7008 18.0181C23.1731 19.2921 22.3997 20.4496 21.4247 21.4246V6.57526ZM6.517 17.4999H4.66667C4.35725 17.4999 4.0605 17.377 3.84171 17.1582C3.62292 16.9394 3.5 16.6427 3.5 16.3333V11.6666C3.5 11.3572 3.62292 11.0604 3.84171 10.8416C4.0605 10.6228 4.35725 10.4999 4.66667 10.4999H6.517L12.0085 5.00843C12.7435 4.27343 14 4.79376 14 5.83326V22.1666C14 23.2061 12.7435 23.7264 12.0085 22.9914L6.517 17.4999Z" stroke="white" stroke-linecap="round" stroke-linejoin="round"/>
</svg>
